<?xml version="1.0" encoding="utf-8"?>
<!-- Generator: Adobe Illustrator 16.0.0, SVG Export Plug-In . SVG Version: 6.00 Build 0)  -->
<!DOCTYPE svg PUBLIC "-//W3C//DTD SVG 1.1//EN" "http://www.w3.org/Graphics/SVG/1.1/DTD/svg11.dtd">
<svg version="1.1" id="Шар_1" xmlns="http://www.w3.org/2000/svg" xmlns:xlink="http://www.w3.org/1999/xlink" x="0px" y="0px"
	 width="115px" height="56.638px" viewBox="65 0 115 56.638" enable-background="new 0 0 180 56.638" xml:space="preserve">
<g>
	<path d="M71.631,48.346c-0.088,0.013-0.18,0.023-0.271,0.028c-0.093,0.006-0.193,0.008-0.3,0.008c-0.224,0-0.43-0.04-0.621-0.116
		c-0.191-0.077-0.357-0.194-0.499-0.355c-0.142-0.159-0.253-0.363-0.334-0.606c-0.082-0.244-0.122-0.534-0.122-0.867
		c0-0.316,0.04-0.599,0.122-0.846c0.081-0.25,0.197-0.461,0.348-0.636c0.151-0.175,0.332-0.306,0.54-0.401
		c0.209-0.093,0.441-0.138,0.697-0.138c0.061,0,0.135,0.002,0.223,0.006c0.088,0.004,0.161,0.015,0.217,0.029v-0.593h0.94v0.613
		c0.083-0.023,0.183-0.038,0.296-0.046c0.114-0.006,0.208-0.009,0.282-0.009c0.224,0,0.43,0.041,0.622,0.121
		c0.189,0.082,0.356,0.206,0.498,0.37c0.142,0.165,0.252,0.37,0.332,0.613c0.078,0.245,0.117,0.527,0.117,0.848
		c0,0.329-0.043,0.62-0.132,0.871c-0.088,0.25-0.209,0.461-0.362,0.63c-0.154,0.17-0.331,0.297-0.533,0.384
		c-0.203,0.086-0.417,0.129-0.644,0.129c-0.08,0-0.163-0.003-0.248-0.01c-0.086-0.007-0.162-0.02-0.227-0.039v0.683h-0.94V48.346z
		 M71.303,47.615c0.038,0,0.094-0.001,0.171-0.003c0.077-0.003,0.141-0.013,0.192-0.031v-2.377
		c-0.048-0.009-0.101-0.015-0.161-0.017c-0.06-0.003-0.116-0.004-0.167-0.004c-0.255,0-0.468,0.1-0.641,0.298
		c-0.172,0.201-0.258,0.514-0.258,0.951c0,0.377,0.078,0.669,0.237,0.876C70.834,47.512,71.042,47.615,71.303,47.615 M72.927,45.182
		c-0.05,0-0.116,0.003-0.195,0.008c-0.079,0.004-0.144,0.013-0.195,0.029v2.383c0.038,0.009,0.084,0.014,0.143,0.014h0.17
		c0.125,0,0.244-0.024,0.355-0.07s0.209-0.122,0.293-0.224c0.083-0.103,0.148-0.232,0.195-0.387c0.046-0.153,0.069-0.34,0.069-0.561
		c0-0.373-0.075-0.665-0.222-0.875C73.392,45.287,73.187,45.182,72.927,45.182"/>
	<path d="M79.444,47.795h-1.5l-0.369,1.08h-0.955l1.755-4.912h0.705l1.755,4.912h-1.004L79.444,47.795z M78.189,47.03h1.045
		l-0.363-1.089l-0.146-0.766h-0.035l-0.147,0.774L78.189,47.03z"/>
	<path d="M83.172,43.998h3.004v0.85h-2.048v1.018c0.079-0.013,0.175-0.028,0.288-0.043c0.114-0.013,0.227-0.019,0.339-0.019
		c0.26,0,0.5,0.024,0.718,0.075c0.217,0.052,0.405,0.136,0.56,0.255c0.156,0.118,0.278,0.274,0.367,0.466
		c0.087,0.192,0.132,0.43,0.132,0.708c0,0.275-0.046,0.514-0.136,0.717c-0.09,0.205-0.221,0.375-0.391,0.51
		c-0.169,0.135-0.374,0.237-0.613,0.307c-0.239,0.068-0.507,0.104-0.805,0.104c-0.08,0-0.177-0.002-0.296-0.007
		c-0.119-0.006-0.244-0.012-0.376-0.021c-0.132-0.01-0.263-0.021-0.393-0.036c-0.131-0.013-0.246-0.031-0.349-0.054V43.998z
		 M84.657,48.145c0.121,0,0.233-0.016,0.338-0.046c0.104-0.029,0.196-0.075,0.275-0.136c0.078-0.061,0.142-0.141,0.188-0.237
		c0.046-0.095,0.07-0.211,0.07-0.349c0-0.163-0.025-0.295-0.076-0.397c-0.051-0.1-0.122-0.179-0.209-0.235
		c-0.089-0.057-0.19-0.095-0.304-0.113c-0.113-0.018-0.236-0.027-0.366-0.027c-0.065,0-0.146,0.006-0.244,0.017
		c-0.098,0.011-0.164,0.022-0.201,0.031v1.458c0.051,0.013,0.128,0.023,0.233,0.026C84.466,48.142,84.564,48.145,84.657,48.145"/>
	<path d="M89.062,44.046c0.195-0.038,0.41-0.067,0.645-0.087c0.235-0.021,0.468-0.032,0.701-0.032c0.241,0,0.484,0.02,0.728,0.059
		c0.244,0.04,0.463,0.119,0.659,0.237c0.195,0.121,0.354,0.284,0.478,0.496c0.122,0.212,0.184,0.486,0.184,0.826
		c0,0.307-0.053,0.565-0.161,0.777c-0.107,0.211-0.249,0.385-0.425,0.52c-0.177,0.134-0.377,0.231-0.602,0.292
		c-0.227,0.061-0.459,0.09-0.701,0.09h-0.112c-0.051,0-0.104,0-0.16-0.003c-0.056-0.002-0.11-0.005-0.164-0.01
		c-0.053-0.004-0.092-0.009-0.115-0.014v1.679h-0.956V44.046z M90.483,44.75c-0.093,0-0.181,0.004-0.265,0.011
		c-0.083,0.007-0.15,0.016-0.201,0.024v1.583c0.018,0.005,0.046,0.008,0.083,0.013c0.037,0.005,0.077,0.009,0.119,0.009
		c0.042,0.003,0.083,0.004,0.122,0.004h0.087c0.126,0,0.25-0.011,0.373-0.034c0.123-0.024,0.234-0.066,0.331-0.129
		c0.098-0.063,0.175-0.149,0.233-0.261c0.058-0.111,0.087-0.259,0.087-0.439c0-0.154-0.027-0.28-0.084-0.38
		c-0.055-0.101-0.128-0.181-0.219-0.24c-0.09-0.061-0.194-0.104-0.311-0.126C90.723,44.762,90.605,44.75,90.483,44.75"/>
	<polygon points="97.809,46.172 97.863,45.539 97.83,45.539 97.502,46.193 95.683,48.875 94.966,48.875 94.966,43.997 95.92,43.997 
		95.92,46.653 95.851,47.308 95.893,47.308 96.234,46.632 98.053,43.997 98.764,43.997 98.764,48.875 97.809,48.875 	"/>
	<polygon points="102.729,46.792 102.478,46.792 102.478,48.875 101.523,48.875 101.523,43.998 102.478,43.998 102.478,46.158 
		102.702,46.06 104.047,43.998 105.133,43.998 103.711,46.046 103.336,46.313 103.726,46.583 105.35,48.875 104.172,48.875 	"/>
	<path d="M110.048,47.795h-1.499l-0.369,1.08h-0.955l1.755-4.912h0.704l1.756,4.912h-1.004L110.048,47.795z M108.792,47.03h1.047
		l-0.363-1.089l-0.146-0.766h-0.035l-0.147,0.774L108.792,47.03z"/>
	<path d="M121.339,49.748h-0.677l-0.104-0.873h-3.137l-0.104,0.873h-0.676v-1.723h0.515c0.034-0.05,0.086-0.164,0.161-0.341
		c0.074-0.176,0.148-0.426,0.223-0.749s0.138-0.728,0.188-1.212c0.051-0.487,0.074-1.062,0.07-1.726h2.921v4.027h0.62V49.748z
		 M119.764,48.025v-3.178h-1.081c-0.028,0.827-0.094,1.504-0.198,2.033c-0.105,0.526-0.211,0.909-0.318,1.145H119.764z"/>
	<path d="M127.074,45.133c0,0.122-0.015,0.242-0.045,0.362c-0.031,0.121-0.08,0.232-0.15,0.331c-0.069,0.1-0.16,0.188-0.271,0.265
		c-0.112,0.077-0.247,0.134-0.404,0.171v0.043c0.139,0.023,0.271,0.063,0.397,0.118c0.125,0.056,0.234,0.132,0.327,0.229
		s0.167,0.216,0.22,0.356c0.053,0.14,0.08,0.305,0.08,0.496c0,0.249-0.054,0.467-0.161,0.65c-0.107,0.184-0.25,0.334-0.428,0.45
		c-0.18,0.116-0.383,0.202-0.61,0.257c-0.228,0.057-0.463,0.084-0.705,0.084h-0.303c-0.123,0-0.254-0.004-0.397-0.011
		c-0.142-0.008-0.285-0.017-0.431-0.031c-0.146-0.014-0.28-0.035-0.402-0.063v-4.81c0.089-0.013,0.189-0.028,0.304-0.041
		c0.113-0.015,0.236-0.026,0.367-0.035c0.13-0.01,0.263-0.017,0.4-0.021s0.272-0.007,0.408-0.007c0.227,0,0.45,0.019,0.665,0.053
		c0.216,0.035,0.408,0.098,0.579,0.185c0.169,0.088,0.305,0.211,0.409,0.37C127.023,44.691,127.074,44.893,127.074,45.133
		 M125.019,46.047c0.064,0,0.141-0.002,0.227-0.007c0.086-0.005,0.157-0.011,0.212-0.021c0.177-0.054,0.329-0.137,0.456-0.247
		c0.128-0.11,0.192-0.254,0.192-0.434c0-0.121-0.023-0.219-0.069-0.297c-0.047-0.078-0.107-0.141-0.185-0.187
		c-0.076-0.047-0.164-0.079-0.261-0.097c-0.097-0.017-0.199-0.028-0.306-0.028c-0.121,0-0.233,0.003-0.335,0.007
		c-0.103,0.006-0.181,0.011-0.237,0.02v1.291H125.019z M125.332,48.145c0.116,0,0.229-0.014,0.338-0.043
		c0.109-0.026,0.206-0.069,0.29-0.127c0.083-0.057,0.151-0.131,0.202-0.217c0.05-0.088,0.077-0.191,0.077-0.311
		c0-0.152-0.031-0.272-0.09-0.359c-0.061-0.088-0.141-0.155-0.238-0.205c-0.097-0.047-0.207-0.079-0.327-0.092
		c-0.121-0.015-0.241-0.021-0.361-0.021h-0.51v1.332c0.023,0.01,0.06,0.017,0.112,0.021c0.051,0.005,0.105,0.009,0.164,0.012
		c0.058,0,0.119,0.003,0.182,0.005C125.23,48.143,125.285,48.145,125.332,48.145"/>
	<polygon points="129.828,43.998 132.72,43.998 132.72,44.847 130.782,44.847 130.782,45.984 132.546,45.984 132.546,46.833 
		130.782,46.833 130.782,48.025 132.755,48.025 132.755,48.875 129.828,48.875 	"/>
	<path d="M135.382,44.046c0.196-0.038,0.41-0.067,0.645-0.087c0.235-0.021,0.467-0.032,0.7-0.032c0.241,0,0.484,0.02,0.729,0.059
		c0.243,0.04,0.462,0.119,0.658,0.237c0.195,0.121,0.354,0.284,0.477,0.496s0.185,0.486,0.185,0.826c0,0.307-0.053,0.565-0.16,0.777
		c-0.107,0.211-0.249,0.385-0.426,0.52c-0.177,0.134-0.377,0.231-0.603,0.292c-0.225,0.061-0.458,0.09-0.7,0.09h-0.112
		c-0.051,0-0.105,0-0.16-0.003c-0.056-0.002-0.11-0.005-0.163-0.01c-0.054-0.004-0.093-0.009-0.115-0.014v1.679h-0.956V44.046z
		 M136.804,44.75c-0.093,0-0.181,0.004-0.265,0.011c-0.083,0.007-0.151,0.016-0.201,0.024v1.583
		c0.018,0.005,0.046,0.008,0.083,0.013s0.077,0.009,0.118,0.009c0.042,0.003,0.083,0.004,0.123,0.004h0.087
		c0.126,0,0.25-0.011,0.373-0.034c0.123-0.024,0.233-0.066,0.332-0.129c0.098-0.063,0.174-0.149,0.232-0.261
		c0.059-0.111,0.087-0.259,0.087-0.439c0-0.154-0.027-0.28-0.084-0.38c-0.056-0.101-0.128-0.181-0.219-0.24
		c-0.09-0.061-0.194-0.104-0.31-0.126C137.043,44.762,136.925,44.75,136.804,44.75"/>
	<polygon points="141.286,43.998 144.178,43.998 144.178,44.847 142.241,44.847 142.241,45.984 144.004,45.984 144.004,46.833 
		142.241,46.833 142.241,48.025 144.213,48.025 144.213,48.875 141.286,48.875 	"/>
	<path d="M149.685,46.172l0.056-0.633h-0.035l-0.328,0.653l-1.819,2.683h-0.718v-4.878h0.955v2.656l-0.07,0.655h0.042l0.341-0.676
		l1.819-2.634h0.71v4.878h-0.954V46.172z M148.325,42.785c0.018,0.148,0.073,0.255,0.163,0.32c0.091,0.066,0.208,0.098,0.352,0.098
		c0.312,0,0.484-0.137,0.516-0.411l0.773,0.117c-0.05,0.293-0.184,0.508-0.4,0.642c-0.216,0.134-0.515,0.203-0.895,0.203
		c-0.19,0-0.365-0.015-0.523-0.043c-0.157-0.028-0.295-0.072-0.414-0.136c-0.118-0.063-0.216-0.148-0.293-0.253
		c-0.076-0.108-0.124-0.24-0.142-0.397L148.325,42.785z"/>
	<path d="M68.654,12.926v1.771h1.658c0.855,0,1.158,0.122,1.264,0.195c0.16,0.111,0.239,0.321,0.239,0.64v15.732
		c0,0.257-0.087,0.478-0.267,0.676c-0.17,0.188-0.449,0.283-0.832,0.283h-2.062v1.771h11.558v-1.771h-2.354
		c-0.314,0-0.591-0.087-0.844-0.269c-0.228-0.163-0.339-0.416-0.339-0.774V15.767c0-0.392,0.074-0.674,0.219-0.836
		c0.135-0.153,0.425-0.234,0.838-0.234H80.6c1.909,0,3.203,0.524,3.85,1.559c0.672,1.074,1.077,2.654,1.203,4.692l0.014,0.223h1.778
		l-0.267-8.245H68.654z"/>
	<path d="M106.847,14.628c-1.284-1.13-2.994-1.703-5.086-1.703H89.467v1.771h2.214c0.245,0,0.446,0.079,0.616,0.241
		c0.165,0.159,0.246,0.375,0.246,0.663v15.69c0,0.308-0.078,0.534-0.242,0.693c-0.162,0.158-0.417,0.238-0.76,0.238h-2.075v1.77
		h11.446v-1.77h-2.604c-0.272,0-0.488-0.078-0.658-0.241c-0.165-0.158-0.246-0.383-0.246-0.69v-6.474h3.577
		c1.21,0,2.447-0.21,3.674-0.625c1.249-0.42,2.26-1.109,3.006-2.047c0.75-0.944,1.13-2.059,1.13-3.314
		C108.792,17.179,108.138,15.766,106.847,14.628 M103.355,21.244c-0.269,0.5-0.734,0.935-1.381,1.29
		c-0.652,0.36-1.412,0.542-2.258,0.542h-2.311v-7.615c0-0.286,0.084-0.477,0.257-0.584c0.115-0.073,0.481-0.195,1.621-0.195
		c1.527,0,2.613,0.233,3.226,0.69c0.834,0.636,1.257,1.762,1.257,3.347C103.765,19.889,103.627,20.738,103.355,21.244"/>
	<path d="M128.9,31.989c-0.222-0.16-0.44-0.481-0.644-0.958l-7.781-18.621h-1.88l-7.442,17.77c-0.282,0.657-0.683,1.203-1.191,1.623
		c-0.34,0.283-0.725,0.419-1.175,0.419h-0.685v1.77h8.299v-1.77h-0.893c-0.711,0-1.274-0.17-1.674-0.508
		c-0.393-0.331-0.584-0.751-0.584-1.287c0-0.219,0.077-0.663,0.441-1.522l0.671-1.595h7.393l1.526,3.668
		c0.099,0.239,0.149,0.447,0.149,0.619c0,0.109-0.029,0.272-0.286,0.423c-0.159,0.093-0.523,0.203-1.355,0.203h-1.143v1.77h10.137
		v-1.77h-0.989C129.42,32.222,129.119,32.144,128.9,31.989 M120.988,25.47h-5.852l2.941-6.992L120.988,25.47z"/>
	<path d="M145.18,14.696h1.435c0.428,0,0.727,0.077,0.89,0.229c0.155,0.145,0.237,0.44,0.237,0.855v6.167h-7.376v-6.515
		c0-0.228,0.07-0.403,0.213-0.533c0.149-0.135,0.396-0.204,0.732-0.204h1.643v-1.77h-10.011v1.77h1.434
		c0.411,0,0.703,0.08,0.869,0.236c0.163,0.151,0.245,0.437,0.245,0.849v15.524c0,0.341-0.063,0.591-0.183,0.726
		c-0.114,0.127-0.315,0.192-0.595,0.192h-1.769v1.77h10.011v-1.77h-1.895c-0.218,0-0.384-0.065-0.504-0.199
		c-0.126-0.14-0.19-0.382-0.19-0.719v-7.17h7.376v7.17c0,0.346-0.066,0.598-0.19,0.725c-0.125,0.128-0.355,0.192-0.686,0.192h-1.686
		v1.77h10.026v-1.77h-1.672c-0.317,0-0.551-0.079-0.716-0.244c-0.162-0.161-0.243-0.439-0.243-0.828V15.6
		c0-0.318,0.076-0.549,0.229-0.687c0.155-0.143,0.461-0.217,0.884-0.217h1.519v-1.77H145.18V14.696z"/>
	<path d="M160.368,14.696h0.53c1.051,0,1.764,0.275,2.118,0.819c0.376,0.574,0.569,1.873,0.569,3.858
		c0,2.174-0.168,4.14-0.498,5.843c-0.329,1.694-0.809,3.112-1.43,4.218c-0.61,1.088-1.255,1.819-1.917,2.175
		c-0.669,0.363-1.596,0.568-2.75,0.614l-0.221,0.008l-0.224,6.828h1.925l0.005-0.229c0.054-1.89,0.551-3.177,1.479-3.83
		c0.953-0.668,2.174-1.008,3.63-1.008h9.007c1.014,0,2.029,0.206,3.023,0.609c0.958,0.391,1.583,0.945,1.859,1.648
		c0.292,0.746,0.486,1.638,0.576,2.649l0.02,0.216H180v-6.893h-1.671c-0.959,0-1.406-0.397-1.406-1.251V15.419
		c0-0.358,0.111-0.723,0.932-0.723H180v-1.77h-19.632V14.696z M172.063,14.696v17.373H161.71c0.851-0.649,1.588-1.593,2.199-2.816
		c0.761-1.521,1.235-3.078,1.409-4.625c0.171-1.525,0.315-3.293,0.426-5.253c0.1-1.63,0.209-2.705,0.321-3.191
		c0.102-0.444,0.355-0.792,0.773-1.066c0.425-0.28,1.155-0.421,2.17-0.421H172.063z"/>
</g>
</svg>
